<svg xmlns="http://www.w3.org/2000/svg" version="1.1" width="225px" height="225px" style="shape-rendering:geometricPrecision; text-rendering:geometricPrecision; image-rendering:optimizeQuality; fill-rule:evenodd; clip-rule:evenodd" xmlns:xlink="http://www.w3.org/1999/xlink">
<g></g>
<g></g>
<g><path style="opacity: 1; visibility: visible; fill: rgb(94, 121, 135);" fill="#046633" d="M 111.5,34.5 C 133.941,46.8897 156.274,59.5564 178.5,72.5C 179.667,98.827 179.833,125.16 179,151.5C 156.913,164.583 134.58,177.25 112,189.5C 89.768,176.967 67.6013,164.3 45.5,151.5C 44.3335,125.506 44.1668,99.5064 45,73.5C 67.3119,60.5996 89.4786,47.5996 111.5,34.5 Z" data-index="1"></path></g>
<g><path style="opacity: 1; visibility: visible;" fill="#fcfcfc" d="M 110.5,54.5 C 112.308,54.4914 113.975,54.9914 115.5,56C 130.67,65.086 146.003,73.9194 161.5,82.5C 162.833,91.1667 162.833,99.8333 161.5,108.5C 144.918,98.9595 128.418,89.2928 112,79.5C 106.5,83 101,86.5 95.5,90C 117.748,102.707 139.915,115.54 162,128.5C 162.799,133.087 162.632,137.587 161.5,142C 144.755,151.121 128.255,160.621 112,170.5C 95.5822,160.707 79.0822,151.041 62.5,141.5C 61.3348,132.853 61.1681,124.186 62,115.5C 78.5191,125.426 95.1857,135.093 112,144.5C 117.729,141.719 123.229,138.553 128.5,135C 106.889,121.568 84.8891,108.735 62.5,96.5C 61.3391,92.2047 61.1725,87.8713 62,83.5C 78.3128,73.9332 94.4795,64.2665 110.5,54.5 Z" data-index="2"></path></g>
</svg>